<svg xmlns="http://www.w3.org/2000/svg" width="24" height="24" viewBox="0 0 32 32" fill="none" stroke="currentColor" stroke-width="2" stroke-linecap="round" stroke-linejoin="round">
  <path d="M3 16H7" />
  <path d="M13 16H18M22 16V23H29M22 16H26M22 16H18M18 16V20H16" />
  <path d="M16 7V10" />
  <path d="M16 25V29H23V27" />
  <path d="M29.01 29H29" />
  <rect x="2" y="0" width="28" height="2" fill="currentColor" opacity="0" />
  <rect x="3" y="3" width="9" height="9" fill="none" />
  <rect x="3" y="20" width="9" height="9" fill="none" />
  <rect x="20" y="3" width="9" height="9" fill="none" />
  <rect x="27" y="20" width="2" height="2" fill="none" />
  <rect x="16" y="27" width="2" height="2" fill="none" />
  <rect x="24" y="7" width="1" height="1" fill="none" />
  <rect x="7" y="7" width="1" height="1" fill="none" />
  <rect x="7" y="24" width="1" height="1" fill="none" />
</svg>
